<?xml version="1.0" encoding="UTF-8"?>
<svg id="Capa_1" data-name="Capa 1" xmlns="http://www.w3.org/2000/svg" viewBox="0 0 128 128">
  <g>
    <circle fill="#ffcd00" cx="63.85" cy="64.06" r="34.82"/>
    <path fill="#fff" d="m61.09,53.16c-.57.71-.86,1.67-.86,2.86,0,1.13.31,2.02.92,2.68.61.67,1.85,1.44,3.72,2.33,3.88,1.24,6.79,2.77,8.73,4.59,1.94,1.82,2.91,4.31,2.91,7.49,0,2.94-.93,5.3-2.8,7.08-1.87,1.78-4.42,2.82-7.66,3.13v5.07h-4.01v-5.07c-3.4-.28-6.18-1.36-8.37-3.24-2.18-1.87-3.24-4.64-3.15-8.31l.05-.15h8.29c0,1.93.46,3.31,1.4,4.13.93.82,2.19,1.23,3.77,1.23,1.4,0,2.41-.35,3.04-1.04.63-.7.94-1.63.94-2.79,0-1.34-.33-2.36-.97-3.06-.65-.69-1.88-1.42-3.69-2.18-4.02-1.41-6.96-2.96-8.84-4.64-1.87-1.68-2.81-4.12-2.81-7.31,0-2.87.98-5.23,2.92-7.07,1.95-1.84,4.59-2.89,7.91-3.16v-5.32h3.98v5.39c3.14.42,5.61,1.6,7.41,3.55,1.8,1.95,2.67,4.46,2.62,7.54l-.05.13h-8.32c0-1.68-.37-2.93-1.1-3.73-.73-.81-1.76-1.21-3.09-1.21s-2.35.36-2.92,1.07Z"/>
  </g>
  <path fill="#c8201f" d="m1.96,63.45l17.02.15c.16,0,.29-.13.29-.29,0-.01,0-.03,0-.05,0-.23,0-.46.02-.69,0-.04,0-.07,0-.11,0-.2.01-.4.03-.6,0-.08,0-.16.01-.24,0-.18.02-.35.03-.52,0-.09.01-.19.02-.28.01-.19.03-.39.05-.58.02-.24.04-.48.07-.72,0-.03,0-.05,0-.08.02-.19.04-.38.06-.56.04-.37.09-.75.14-1.12.03-.19.05-.37.08-.56.04-.24.08-.48.12-.71,0-.05.02-.09.03-.14.04-.22.08-.43.12-.65.05-.25.1-.5.15-.75.06-.29.12-.59.19-.88.05-.2.09-.41.14-.61.06-.25.12-.49.19-.74.07-.29.15-.57.23-.86.06-.2.11-.4.18-.61.5-1.68,1.09-3.33,1.78-4.94.06-.14.12-.28.19-.43.56-1.27,1.18-2.52,1.86-3.73.12-.23.25-.45.38-.67.39-.67.79-1.33,1.22-1.98.14-.22.28-.43.43-.65.14-.21.29-.43.44-.64.29-.42.59-.83.89-1.23.16-.22.33-.43.5-.65.16-.21.32-.41.49-.61.33-.4.66-.8,1.01-1.19.17-.2.34-.4.52-.59.53-.59,1.09-1.17,1.65-1.74.18-.17.35-.35.54-.52.42-.41.85-.8,1.29-1.19.15-.14.31-.27.46-.41.19-.17.39-.33.58-.5.39-.32.78-.64,1.18-.95.1-.08.2-.16.31-.23.14-.11.27-.21.41-.31.29-.22.57-.43.87-.63.13-.1.27-.19.4-.28.18-.13.37-.26.56-.38.12-.09.25-.17.38-.25.15-.1.3-.2.45-.3.23-.14.46-.29.69-.43.21-.13.42-.26.63-.38.3-.18.6-.35.9-.52.19-.11.38-.21.57-.31.03-.02.06-.04.09-.05.18-.1.36-.2.54-.29.11-.06.22-.12.33-.17.15-.08.31-.16.46-.23.05-.03.1-.05.15-.08.13-.07.26-.13.39-.19l.26-.12h0c1.04-.5,2.1-.95,3.16-1.35.48-.18.96-.36,1.44-.53.48-.17.96-.32,1.44-.47,19.54-6.02,40.92,2.05,51.55,19.72.09.14.17.29.26.44.67,1.15,1.3,2.33,1.88,3.56l-2.48,1.17c-.79.37-1.44,1.05-1.75,1.94-.32.89-.24,1.82.13,2.61.37.79,1.05,1.44,1.94,1.75l11.83,4.23,3.21,1.15c.89.32,1.82.25,2.61-.13.79-.37,1.44-1.05,1.75-1.94l1.15-3.21,4.23-11.83c.32-.89.24-1.82-.13-2.61-.37-.79-1.05-1.44-1.94-1.75-.89-.32-1.82-.24-2.61.13l-2.04.96C105.84,6.11,68.61-7.21,37.43,7.54,15.16,18.08,2,40.07,1.67,63.15c0,.16.13.3.29.3Z"/>
  <path fill="#3061f2" d="m.83,90.17c.37.79,1.05,1.44,1.94,1.75s1.82.24,2.61-.13l2.3-1.09c14.75,31.18,51.98,44.5,83.16,29.75,22.27-10.53,35.43-32.53,35.76-55.61,0-.16-.13-.3-.29-.3l-17.02-.15c-.16,0-.29.13-.29.29,0,.01,0,.03,0,.05,0,.23,0,.46-.02.69,0,.04,0,.07,0,.11,0,.2-.01.4-.03.6,0,.08,0,.16-.01.24,0,.18-.02.35-.03.52,0,.09-.01.19-.02.28-.01.19-.03.39-.05.58-.02.24-.04.48-.07.72,0,.03,0,.05,0,.08-.02.19-.04.38-.06.56-.04.37-.09.75-.14,1.12-.03.19-.05.37-.08.56-.04.24-.08.48-.12.71,0,.05-.02.09-.03.14-.04.22-.08.43-.12.65-.05.25-.1.5-.15.75-.06.29-.12.59-.19.88-.05.2-.09.41-.14.61-.06.25-.12.49-.19.74-.07.29-.15.57-.23.86-.06.2-.11.4-.18.61-.5,1.68-1.09,3.33-1.78,4.94-.06.14-.12.28-.19.43-.56,1.27-1.18,2.52-1.86,3.73-.12.23-.25.45-.38.67-.39.67-.79,1.33-1.22,1.98-.14.22-.28.43-.43.65-.14.21-.29.43-.44.64-.29.42-.59.83-.89,1.23-.16.22-.33.43-.5.65-.16.21-.32.41-.49.61-.33.4-.66.8-1.01,1.19-.17.2-.34.4-.52.59-.53.59-1.09,1.17-1.65,1.74-.18.17-.35.35-.54.52-.42.41-.85.8-1.29,1.19-.15.14-.31.27-.46.41-.19.17-.39.33-.58.5-.39.32-.78.64-1.18.95-.1.08-.2.16-.31.23-.14.11-.27.21-.41.31-.29.22-.57.43-.87.63-.13.1-.27.19-.4.28-.18.13-.37.26-.56.38-.12.09-.25.17-.38.25-.15.1-.3.2-.45.3-.23.14-.46.29-.69.43-.21.13-.42.26-.63.38-.3.18-.6.35-.9.52-.19.11-.38.21-.57.31-.03.02-.06.04-.09.05-.18.1-.36.2-.54.29-.11.06-.22.12-.33.17-.15.08-.31.16-.46.23-.05.03-.1.05-.15.08-.13.07-.26.13-.39.19l-.26.12h0c-1.04.5-2.1.95-3.16,1.35-.48.18-.96.36-1.44.53-.48.17-.96.32-1.44.47-19.54,6.02-40.92-2.05-51.55-19.72-.09-.14-.17-.29-.26-.44-.67-1.15-1.3-2.33-1.88-3.56l2.21-1.05c.79-.37,1.44-1.05,1.75-1.94s.24-1.82-.13-2.61-1.05-1.44-1.94-1.75l-11.83-4.23-3.21-1.15c-.89-.32-1.82-.25-2.61.13s-1.44,1.05-1.75,1.94l-1.15,3.21-4.23,11.83c-.32.89-.24,1.82.13,2.61Z"/>
</svg>