<?xml version="1.0" encoding="UTF-8"?>
<svg id="Capa_1" data-name="Capa 1" xmlns="http://www.w3.org/2000/svg" viewBox="0 0 512 512">
  <path fill="#fff" d="m255.5,136.15c-66.31,0-120.07,53.75-120.07,120.06s53.76,120.07,120.07,120.07,120.07-53.76,120.07-120.07-53.76-120.06-120.07-120.06Zm43.67,95.8h-28.69c0-5.8-1.26-10.09-3.78-12.87-2.52-2.78-6.07-4.17-10.65-4.17s-8.11,1.23-10.08,3.7c-1.97,2.46-2.95,5.74-2.95,9.86,0,3.88,1.05,6.97,3.16,9.25,2.12,2.3,6.39,4.98,12.83,8.05,13.39,4.29,23.42,9.55,30.12,15.81,6.68,6.26,10.04,14.87,10.04,25.83,0,10.13-3.23,18.27-9.65,24.41-6.43,6.14-15.24,9.74-26.43,10.78v17.47h-13.81v-17.47c-11.72-.98-21.33-4.7-28.86-11.17-7.54-6.45-11.16-16-10.87-28.64l.18-.51h28.59c0,6.66,1.6,11.41,4.83,14.25,3.21,2.84,7.54,4.25,12.98,4.25,4.82,0,8.31-1.19,10.49-3.6,2.16-2.4,3.25-5.61,3.25-9.61,0-4.63-1.12-8.14-3.34-10.56-2.23-2.4-6.48-4.91-12.74-7.51-13.84-4.87-24-10.2-30.47-15.99-6.45-5.81-9.69-14.2-9.69-25.22,0-9.9,3.37-18.02,10.09-24.38,6.72-6.34,15.81-9.97,27.29-10.9v-18.34h13.73v18.6c10.84,1.44,19.36,5.53,25.55,12.25,6.21,6.73,9.23,15.39,9.05,26l-.17.43Z"/>
  <path fill="#fff" d="m42.05,254.12l58.69.51c.55,0,.99-.46,1.01-1.01,0-.05,0-.1,0-.16,0-.79.02-1.58.05-2.38,0-.13,0-.25.02-.38.02-.69.04-1.39.09-2.08,0-.27.02-.54.04-.81.03-.61.06-1.2.1-1.81.02-.32.04-.64.07-.97.04-.66.09-1.33.16-2,.06-.83.15-1.66.23-2.49,0-.1.02-.19.03-.29.07-.65.14-1.29.21-1.93.15-1.29.31-2.58.5-3.86.09-.65.18-1.29.29-1.93.13-.82.26-1.65.4-2.46.03-.16.05-.33.09-.49.13-.75.26-1.5.4-2.25.17-.86.34-1.72.52-2.59.2-1.01.42-2.02.66-3.03.16-.7.33-1.4.49-2.11.2-.85.42-1.7.65-2.56.25-.98.52-1.98.81-2.96.19-.69.39-1.39.61-2.1,1.71-5.79,3.77-11.47,6.16-17.03.2-.49.42-.98.64-1.47,1.93-4.38,4.07-8.69,6.41-12.88.43-.79.87-1.56,1.32-2.32,1.34-2.31,2.74-4.59,4.21-6.83.48-.75.97-1.49,1.48-2.23.5-.73,1-1.47,1.52-2.21,1-1.43,2.03-2.85,3.08-4.24.56-.75,1.14-1.49,1.72-2.23.55-.71,1.11-1.41,1.68-2.11,1.12-1.4,2.28-2.77,3.47-4.12.58-.68,1.19-1.36,1.79-2.02,1.84-2.04,3.74-4.04,5.7-5.99.61-.6,1.22-1.2,1.85-1.8,1.45-1.4,2.94-2.78,4.46-4.12.52-.48,1.06-.94,1.6-1.4.66-.58,1.33-1.15,2.01-1.71,1.33-1.11,2.69-2.2,4.06-3.27.35-.27.7-.54,1.06-.8.47-.37.95-.73,1.43-1.08.99-.75,1.98-1.47,3-2.18.45-.34.92-.66,1.39-.98.63-.45,1.27-.88,1.92-1.3.42-.29.86-.58,1.3-.86.51-.35,1.04-.69,1.57-1.02.79-.5,1.58-1,2.38-1.49.72-.44,1.45-.88,2.18-1.31,1.02-.61,2.07-1.21,3.11-1.79.64-.38,1.3-.74,1.97-1.09.11-.06.21-.12.32-.17.61-.34,1.23-.68,1.86-1,.37-.2.76-.4,1.14-.58.52-.28,1.05-.55,1.59-.8.17-.09.35-.19.53-.26.43-.23.88-.45,1.33-.66l.91-.43h.02c3.6-1.71,7.23-3.26,10.89-4.66,1.65-.63,3.31-1.23,4.98-1.81,1.65-.57,3.3-1.1,4.97-1.61,67.4-20.75,141.1,7.09,177.76,67.99.31.5.6,1.01.9,1.51,2.32,3.96,4.48,8.04,6.48,12.26l-8.54,4.04c-2.72,1.29-4.96,3.62-6.05,6.68-1.09,3.06-.84,6.28.44,9,1.29,2.72,3.62,4.96,6.68,6.05l40.79,14.59,11.08,3.96c3.06,1.09,6.28.85,8.99-.43,2.72-1.29,4.95-3.62,6.05-6.68l3.97-11.08,14.59-40.79c1.09-3.06.84-6.27-.44-9-1.29-2.72-3.62-4.96-6.68-6.05-3.06-1.09-6.27-.84-9,.44l-7.02,3.32C400.28,56.37,271.89,10.44,164.36,61.3c-76.8,36.33-122.18,112.19-123.32,191.78,0,.56.46,1.03,1.01,1.04Z"/>
  <path fill="#fff" d="m38.15,346.23c1.29,2.72,3.62,4.96,6.68,6.05,3.06,1.09,6.27.84,9-.44l7.93-3.75c50.86,107.53,179.27,153.47,286.79,102.61,76.8-36.33,122.18-112.19,123.32-191.78,0-.56-.46-1.03-1.01-1.04l-58.69-.51c-.55,0-.99.46-1.01,1.01,0,.05,0,.1,0,.16,0,.79-.02,1.58-.05,2.38,0,.13,0,.25-.02.38-.02.69-.04,1.38-.09,2.08-.01.27-.02.54-.04.81-.03.61-.06,1.2-.1,1.81-.02.32-.04.64-.07.97-.04.66-.09,1.33-.16,2-.06.83-.15,1.66-.23,2.49,0,.1-.02.18-.03.29-.07.65-.14,1.29-.21,1.93-.15,1.29-.31,2.58-.5,3.86-.09.65-.18,1.28-.29,1.93-.13.82-.26,1.65-.4,2.46-.03.16-.05.33-.09.49-.13.75-.26,1.5-.4,2.25-.17.86-.34,1.72-.52,2.59-.2,1.01-.42,2.02-.66,3.03-.16.7-.33,1.4-.49,2.11-.2.85-.42,1.7-.65,2.56-.25.98-.52,1.98-.81,2.96-.19.7-.39,1.39-.61,2.1-1.71,5.79-3.77,11.47-6.16,17.03-.2.49-.42.98-.64,1.47-1.93,4.38-4.07,8.69-6.41,12.88-.43.79-.87,1.56-1.32,2.32-1.34,2.31-2.74,4.59-4.21,6.83-.48.75-.97,1.49-1.48,2.23-.5.73-1,1.47-1.52,2.21-1,1.43-2.03,2.85-3.08,4.24-.56.75-1.14,1.49-1.72,2.23-.55.71-1.11,1.41-1.68,2.11-1.12,1.4-2.28,2.77-3.47,4.12-.58.68-1.19,1.36-1.79,2.02-1.84,2.04-3.74,4.04-5.7,5.99-.61.6-1.22,1.2-1.85,1.8-1.45,1.4-2.94,2.78-4.46,4.12-.52.48-1.06.94-1.6,1.4-.66.58-1.33,1.15-2.01,1.71-1.33,1.11-2.69,2.2-4.06,3.27-.35.27-.7.54-1.06.8-.47.37-.95.73-1.43,1.08-.99.75-1.98,1.47-3,2.18-.45.34-.92.66-1.39.98-.63.45-1.27.88-1.92,1.3-.42.29-.86.58-1.3.86-.51.35-1.04.69-1.57,1.02-.79.5-1.58,1-2.38,1.49-.72.44-1.45.88-2.18,1.31-1.02.61-2.07,1.21-3.11,1.79-.64.38-1.3.74-1.97,1.09-.11.06-.21.12-.32.17-.61.34-1.23.68-1.86,1-.38.2-.76.4-1.14.58-.52.28-1.05.55-1.59.8-.17.09-.35.19-.53.26-.43.23-.88.45-1.33.66l-.91.43h-.02c-3.6,1.71-7.23,3.26-10.89,4.66-1.65.63-3.31,1.23-4.98,1.81-1.65.57-3.3,1.1-4.97,1.61-67.4,20.75-141.1-7.09-177.76-67.99-.31-.5-.6-1.01-.9-1.51-2.32-3.96-4.48-8.05-6.48-12.27l7.64-3.61c2.72-1.29,4.96-3.62,6.05-6.68,1.09-3.06.84-6.28-.44-9s-3.62-4.96-6.68-6.05l-40.79-14.59-11.08-3.96c-3.06-1.09-6.28-.85-8.99.43s-4.95,3.62-6.05,6.68l-3.97,11.08-14.59,40.79c-1.09,3.06-.84,6.28.44,9Z"/>
</svg>